P_AM2_Trial_4_grf.mot						
version=1						
nRows=170						
nColumns=7						
inDegrees=yes						
endheader						
time	ground_force_vx	ground_force_vy	ground_force_vz	ground_force_px	ground_force_py	ground_force_pz
11.617	-1.6669	26.2457	9.3097	-0.060687	0.055323	0.078764
11.625	-1.66	26.3292	9.3518	-0.060706	0.055323	0.078746
11.633	-1.653	26.4193	9.3955	-0.060724	0.055323	0.078729
11.642	-1.646	26.5158	9.4405	-0.060744	0.055323	0.078712
11.65	-1.6389	26.6186	9.4865	-0.060763	0.055323	0.078697
11.658	-1.6319	26.7273	9.5333	-0.060783	0.055322	0.078683
11.667	-1.6249	26.8416	9.5806	-0.060802	0.055322	0.07867
11.675	-1.6181	26.9611	9.6281	-0.060822	0.055322	0.078659
11.683	-1.6114	27.0856	9.6755	-0.060842	0.055322	0.07865
11.692	-1.6048	27.2145	9.7226	-0.060861	0.055322	0.078642
11.7	-1.5986	27.3473	9.7691	-0.06088	0.055322	0.078636
11.708	-1.5926	27.4837	9.8149	-0.060899	0.055322	0.078632
11.717	-1.5869	27.6229	9.8597	-0.060918	0.055322	0.07863
11.725	-1.5816	27.7646	9.9033	-0.060936	0.055322	0.078629
11.733	-1.5767	27.9081	9.9456	-0.060954	0.055322	0.07863
11.742	-1.5723	28.0529	9.9864	-0.06097	0.055322	0.078633
11.75	-1.5683	28.1982	10.0256	-0.060987	0.055322	0.078637
11.758	-1.5648	28.3436	10.0631	-0.061002	0.055322	0.078643
11.767	-1.5618	28.4884	10.0987	-0.061017	0.055322	0.078649
11.775	-1.5593	28.6319	10.1326	-0.06103	0.055322	0.078657
11.783	-1.5575	28.7736	10.1645	-0.061043	0.055322	0.078666
11.792	-1.5561	28.9128	10.1944	-0.061055	0.055322	0.078675
11.8	-1.5554	29.049	10.2225	-0.061066	0.055322	0.078685
11.808	-1.5552	29.1815	10.2486	-0.061075	0.055322	0.078696
11.817	-1.5556	29.3099	10.2728	-0.061084	0.055322	0.078706
11.825	-1.5566	29.4335	10.2951	-0.061092	0.055322	0.078717
11.833	-1.5581	29.552	10.3156	-0.061098	0.055322	0.078727
11.842	-1.5601	29.6648	10.3344	-0.061104	0.055322	0.078737
11.85	-1.5627	29.7715	10.3515	-0.061109	0.055322	0.078747
11.858	-1.5658	29.8718	10.367	-0.061112	0.055322	0.078755
11.867	-1.5694	29.9652	10.3809	-0.061115	0.055322	0.078764
11.875	-1.5734	30.0515	10.3935	-0.061116	0.055322	0.078771
11.883	-1.5779	30.1305	10.4046	-0.061117	0.055322	0.078777
11.892	-1.5828	30.2018	10.4145	-0.061116	0.055322	0.078782
11.9	-1.588	30.2655	10.4232	-0.061115	0.055322	0.078786
11.908	-1.5935	30.3212	10.4308	-0.061113	0.055322	0.078788
11.917	-1.5993	30.3691	10.4373	-0.06111	0.055322	0.07879
11.925	-1.6054	30.409	10.4428	-0.061106	0.055322	0.07879
11.933	-1.6118	30.4411	10.4473	-0.061102	0.055322	0.078789
11.942	-1.6183	30.4653	10.451	-0.061096	0.055322	0.078786
11.95	-1.625	30.4818	10.4537	-0.06109	0.055322	0.078782
11.958	-1.6318	30.4907	10.4556	-0.061084	0.055322	0.078777
11.967	-1.6387	30.4923	10.4565	-0.061077	0.055322	0.078771
11.975	-1.6457	30.4868	10.4566	-0.061069	0.055322	0.078764
11.983	-1.6527	30.4745	10.4559	-0.061061	0.055322	0.078756
11.992	-1.6598	30.4556	10.4541	-0.061053	0.055322	0.078747
12	-1.6668	30.4306	10.4514	-0.061044	0.055322	0.078737
12.008	-1.6739	30.3997	10.4477	-0.061035	0.055322	0.078727
12.017	-1.6809	30.3633	10.4429	-0.061026	0.055322	0.078717
12.025	-1.6878	30.3218	10.437	-0.061016	0.055322	0.078707
12.033	-1.6946	30.2758	10.4299	-0.061006	0.055322	0.078696
12.042	-1.7014	30.2254	10.4215	-0.060996	0.055322	0.078686
12.05	-1.7081	30.1713	10.4118	-0.060986	0.055322	0.078676
12.058	-1.7147	30.1139	10.4008	-0.060976	0.055322	0.078666
12.067	-1.7211	30.0535	10.3884	-0.060966	0.055322	0.078658
12.075	-1.7275	29.9906	10.3745	-0.060956	0.055322	0.07865
12.083	-1.7337	29.9258	10.3591	-0.060946	0.055322	0.078643
12.092	-1.7397	29.8593	10.3421	-0.060936	0.055322	0.078637
12.1	-1.7456	29.7916	10.3237	-0.060926	0.055322	0.078633
12.108	-1.7514	29.7232	10.3037	-0.060917	0.055322	0.07863
12.117	-1.757	29.6544	10.2823	-0.060907	0.055322	0.078628
12.125	-1.7625	29.5856	10.2593	-0.060898	0.055322	0.078628
12.133	-1.7678	29.5172	10.235	-0.060889	0.055322	0.07863
12.142	-1.7729	29.4495	10.2092	-0.060881	0.055322	0.078634
12.15	-1.7779	29.3829	10.1822	-0.060873	0.055322	0.078639
12.158	-1.7827	29.3176	10.1539	-0.060865	0.055322	0.078645
12.167	-1.7873	29.254	10.1245	-0.060857	0.055322	0.078654
12.175	-1.7917	29.1924	10.0941	-0.06085	0.055322	0.078664
12.183	-1.796	29.1328	10.0628	-0.060844	0.055322	0.078676
12.192	-1.8	29.0757	10.0307	-0.060838	0.055322	0.078689
12.2	-1.8039	29.0212	9.998	-0.060832	0.055322	0.078704
12.208	-1.8075	28.9695	9.9649	-0.060827	0.055322	0.078721
12.217	-1.8109	28.9206	9.9313	-0.060822	0.055323	0.078739
12.225	-1.8141	28.8749	9.8976	-0.060818	0.055323	0.078757
12.233	-1.8171	28.8323	9.8639	-0.060814	0.055323	0.078778
12.242	-1.8198	28.793	9.8302	-0.060811	0.055323	0.078799
12.25	-1.8223	28.7571	9.7968	-0.060809	0.055323	0.07882
12.258	-1.8245	28.7246	9.7639	-0.060807	0.055323	0.078843
12.267	-1.8264	28.6955	9.7314	-0.060806	0.055323	0.078866
12.275	-1.828	28.6698	9.6996	-0.060805	0.055323	0.07889
12.283	-1.8293	28.6475	9.6687	-0.060805	0.055323	0.078914
12.292	-1.8303	28.6287	9.6387	-0.060805	0.055324	0.078938
12.3	-1.8309	28.6131	9.6097	-0.060806	0.055324	0.078962
12.308	-1.8312	28.6009	9.5818	-0.060808	0.055324	0.078986
12.317	-1.831	28.5918	9.5552	-0.06081	0.055324	0.07901
12.325	-1.8305	28.5859	9.53	-0.060813	0.055324	0.079034
12.333	-1.8295	28.5829	9.5061	-0.060817	0.055324	0.079057
12.342	-1.8282	28.5827	9.4838	-0.060821	0.055324	0.07908
12.35	-1.8263	28.5853	9.463	-0.060826	0.055324	0.079102
12.358	-1.8241	28.5903	9.4438	-0.060831	0.055324	0.079123
12.367	-1.8213	28.5978	9.4262	-0.060837	0.055324	0.079143
12.375	-1.8181	28.6074	9.4103	-0.060844	0.055325	0.079163
12.383	-1.8143	28.619	9.3962	-0.060851	0.055325	0.079182
12.392	-1.8101	28.6325	9.3838	-0.060859	0.055325	0.079199
12.4	-1.8054	28.6475	9.3731	-0.060867	0.055325	0.079215
12.408	-1.8001	28.6638	9.3642	-0.060875	0.055325	0.079231
12.417	-1.7944	28.6814	9.3571	-0.060885	0.055325	0.079245
12.425	-1.7882	28.6999	9.3517	-0.060894	0.055325	0.079257
12.433	-1.7815	28.7191	9.3481	-0.060904	0.055325	0.079268
12.442	-1.7743	28.7388	9.3461	-0.060914	0.055325	0.079278
12.45	-1.7667	28.7587	9.3459	-0.060925	0.055325	0.079287
12.458	-1.7587	28.7788	9.3473	-0.060936	0.055325	0.079294
12.467	-1.7503	28.7987	9.3503	-0.060947	0.055325	0.079299
12.475	-1.7414	28.8182	9.3549	-0.060958	0.055325	0.079303
12.483	-1.7323	28.8371	9.3609	-0.060969	0.055325	0.079306
12.492	-1.7229	28.8553	9.3683	-0.060981	0.055325	0.079307
12.5	-1.7131	28.8725	9.3771	-0.060992	0.055325	0.079306
12.508	-1.7032	28.8886	9.3871	-0.061003	0.055325	0.079304
12.517	-1.6931	28.9034	9.3982	-0.061014	0.055325	0.079301
12.525	-1.6828	28.9167	9.4103	-0.061025	0.055325	0.079296
12.533	-1.6725	28.9284	9.4234	-0.061036	0.055325	0.07929
12.542	-1.6621	28.9383	9.4373	-0.061047	0.055325	0.079282
12.55	-1.6517	28.9464	9.4518	-0.061057	0.055325	0.079273
12.558	-1.6414	28.9524	9.4668	-0.061067	0.055324	0.079263
12.567	-1.6312	28.9564	9.4821	-0.061076	0.055324	0.079252
12.575	-1.6212	28.9582	9.4977	-0.061085	0.055324	0.07924
12.583	-1.6114	28.9577	9.5134	-0.061093	0.055324	0.079227
12.592	-1.6018	28.9549	9.529	-0.061101	0.055324	0.079214
12.6	-1.5925	28.9498	9.5443	-0.061108	0.055324	0.079199
12.608	-1.5835	28.9422	9.5591	-0.061114	0.055324	0.079184
12.617	-1.5749	28.9322	9.5734	-0.06112	0.055324	0.079169
12.625	-1.5667	28.9198	9.5869	-0.061125	0.055324	0.079153
12.633	-1.5589	28.905	9.5995	-0.06113	0.055324	0.079137
12.642	-1.5516	28.8877	9.6111	-0.061134	0.055324	0.079121
12.65	-1.5448	28.8681	9.6214	-0.061137	0.055324	0.079105
12.658	-1.5384	28.8462	9.6304	-0.061139	0.055323	0.07909
12.667	-1.5325	28.822	9.6379	-0.061141	0.055323	0.079074
12.675	-1.5272	28.7957	9.6439	-0.061142	0.055323	0.07906
12.683	-1.5223	28.7673	9.6481	-0.061142	0.055323	0.079046
12.692	-1.518	28.7369	9.6505	-0.061142	0.055323	0.079032
12.7	-1.5141	28.7047	9.6511	-0.061142	0.055323	0.07902
12.708	-1.5108	28.6708	9.6497	-0.06114	0.055323	0.079009
12.717	-1.5079	28.6353	9.6464	-0.061139	0.055323	0.078998
12.725	-1.5054	28.5984	9.641	-0.061137	0.055323	0.078989
12.733	-1.5033	28.5604	9.6336	-0.061134	0.055323	0.078982
12.742	-1.5017	28.5213	9.6242	-0.061132	0.055323	0.078975
12.75	-1.5003	28.4814	9.6127	-0.061129	0.055323	0.078971
12.758	-1.4994	28.4409	9.5992	-0.061126	0.055323	0.078968
12.767	-1.4986	28.4	9.5837	-0.061122	0.055323	0.078966
12.775	-1.4982	28.3588	9.5662	-0.061119	0.055323	0.078967
12.783	-1.4979	28.3178	9.5468	-0.061116	0.055323	0.078969
12.792	-1.4978	28.277	9.5255	-0.061113	0.055323	0.078973
12.8	-1.4978	28.2366	9.5024	-0.06111	0.055323	0.078979
12.808	-1.4979	28.197	9.4774	-0.061108	0.055323	0.078987
12.817	-1.4981	28.1583	9.4506	-0.061105	0.055323	0.078997
12.825	-1.4983	28.1207	9.4221	-0.061104	0.055323	0.079009
12.833	-1.4984	28.0845	9.3919	-0.061102	0.055323	0.079023
12.842	-1.4985	28.0498	9.36	-0.061101	0.055323	0.07904
12.85	-1.4985	28.0167	9.3264	-0.061101	0.055323	0.079058
12.858	-1.4984	27.9856	9.2911	-0.061101	0.055324	0.079079
12.867	-1.4982	27.9565	9.2541	-0.061102	0.055324	0.079103
12.875	-1.4978	27.9295	9.2155	-0.061103	0.055324	0.079129
12.883	-1.4973	27.9049	9.1752	-0.061105	0.055324	0.079157
12.892	-1.4965	27.8826	9.1332	-0.061108	0.055324	0.079188
12.9	-1.4956	27.8628	9.0894	-0.061112	0.055324	0.079221
12.908	-1.4945	27.8456	9.0439	-0.061116	0.055324	0.079257
12.917	-1.4931	27.8309	8.9967	-0.061121	0.055324	0.079295
12.925	-1.4916	27.8189	8.9477	-0.061127	0.055325	0.079336
12.933	-1.4899	27.8094	8.8969	-0.061133	0.055325	0.079379
12.942	-1.488	27.8027	8.8443	-0.06114	0.055325	0.079425
12.95	-1.4859	27.7985	8.79	-0.061147	0.055325	0.079473
12.958	-1.4837	27.7969	8.734	-0.061155	0.055325	0.079523
12.967	-1.4812	27.7978	8.6763	-0.061164	0.055326	0.079576
12.975	-1.4787	27.8011	8.6169	-0.061173	0.055326	0.079631
12.983	-1.476	27.8068	8.556	-0.061183	0.055326	0.079687
12.992	-1.4732	27.8148	8.4936	-0.061193	0.055326	0.079745
13	-1.4703	27.825	8.4299	-0.061203	0.055327	0.079805
13.008	-1.4674	27.8373	8.365	-0.061214	0.055327	0.079866
13.017	-1.4643	27.8515	8.299	-0.061225	0.055327	0.079929
13.025	-1.4613	27.8675	8.2322	-0.061236	0.055327	0.079992
